<svg width="1085" height="339" viewBox="0 0 1085 339" fill="none" xmlns="http://www.w3.org/2000/svg">
<g clip-path="url(#clip0_17_56)">
<rect x="1" y="1" width="1083" height="337" fill="white" fill-opacity="0.02"/>
<g filter="url(#filter0_b_17_56)">
<path d="M1 196.518C1 187.948 7.94775 181 16.5182 181H1068.48C1077.05 181 1084 187.948 1084 196.518V347H1V196.518Z" fill="black"/>
</g>
<g filter="url(#filter1_b_17_56)">
<rect x="1" y="1" width="1083" height="346" fill="black" fill-opacity="0.2"/>
</g>
<g clip-path="url(#clip1_17_56)">
<path d="M603.429 65.5215L603.429 105.333L523.094 105.333L482.572 65.5215L603.429 65.5215Z" fill="url(#paint0_linear_17_56)"/>
</g>
<g clip-path="url(#clip2_17_56)">
<path d="M402.429 65.5215L402.429 105.333L322.094 105.333L281.572 65.5215L402.429 65.5215Z" fill="url(#paint1_linear_17_56)"/>
</g>
<g clip-path="url(#clip3_17_56)">
<path d="M201.429 65.5215L201.429 105.333L121.094 105.333L80.5716 65.5215L201.429 65.5215Z" fill="url(#paint2_linear_17_56)"/>
</g>
<g clip-path="url(#clip4_17_56)">
<path d="M804.429 65.5215L804.429 105.333L724.094 105.333L683.572 65.5215L804.429 65.5215Z" fill="url(#paint3_linear_17_56)"/>
</g>
<g clip-path="url(#clip5_17_56)">
<path d="M1005.43 65.5215L1005.43 105.333L925.094 105.333L884.572 65.5215L1005.43 65.5215Z" fill="url(#paint4_linear_17_56)"/>
</g>
<path d="M402 25L402 65.5227L482.335 65.5227L522.857 25L402 25Z" fill="url(#paint5_linear_17_56)"/>
<path d="M201 25L201 65.5227L281.335 65.5227L321.857 25L201 25Z" fill="url(#paint6_linear_17_56)"/>
<path d="M0 25L-1.7713e-06 65.5227L80.3345 65.5227L120.857 25L0 25Z" fill="url(#paint7_linear_17_56)"/>
<path d="M603 25L603 65.5227L683.335 65.5227L723.857 25L603 25Z" fill="url(#paint8_linear_17_56)"/>
<path d="M804 25L804 65.5227L884.335 65.5227L924.857 25L804 25Z" fill="url(#paint9_linear_17_56)"/>
<path d="M1005 25L1005 65.5227L1085.33 65.5227L1125.86 25L1005 25Z" fill="url(#paint10_linear_17_56)"/>
<path d="M684 145.857L684 105.334L603.665 105.334L563.143 145.857L684 145.857Z" fill="url(#paint11_linear_17_56)"/>
<path d="M483 145.857L483 105.334L402.665 105.334L362.143 145.857L483 145.857Z" fill="url(#paint12_linear_17_56)"/>
<path d="M282 145.857L282 105.334L201.665 105.334L161.143 145.857L282 145.857Z" fill="url(#paint13_linear_17_56)"/>
<path d="M81.4287 145.857L81.4287 105.334L1.09417 105.334L-39.4284 145.857L81.4287 145.857Z" fill="url(#paint14_linear_17_56)"/>
<path d="M885 145.857L885 105.334L804.665 105.334L764.143 145.857L885 145.857Z" fill="url(#paint15_linear_17_56)"/>
<path d="M1086 145.857L1086 105.334L1005.67 105.334L965.143 145.857L1086 145.857Z" fill="url(#paint16_linear_17_56)"/>
<mask id="mask0_17_56" style="mask-type:alpha" maskUnits="userSpaceOnUse" x="0" y="181" width="1084" height="177">
<rect y="181" width="1084" height="177" fill="white"/>
</mask>
<g mask="url(#mask0_17_56)">
<g filter="url(#filter2_f_17_56)">
<ellipse cx="463.281" cy="78.2786" rx="83.2811" ry="140.776" fill="#3A2078"/>
</g>
<g filter="url(#filter3_f_17_56)">
<ellipse cx="532.681" cy="107.365" rx="83.2811" ry="111.69" fill="#8A3FFC"/>
</g>
<g filter="url(#filter4_f_17_56)">
<ellipse cx="973.667" cy="107.448" rx="58.3336" ry="111.712" fill="#33B1FF"/>
</g>
<g filter="url(#filter5_f_17_56)">
<ellipse cx="772.016" cy="118.999" rx="182.624" ry="111.69" fill="#0F62FE"/>
</g>
</g>
<path d="M663.5 334.5L663.5 288.5L775.821 288.5L831.608 334.5L663.5 334.5Z" stroke="url(#paint17_linear_17_56)"/>
</g>
<rect x="0.568938" y="0.568938" width="1083.86" height="337.862" stroke="white" stroke-opacity="0.05" stroke-width="0.862124"/>
<defs>
<filter id="filter0_b_17_56" x="-9" y="171" width="1103" height="186" filterUnits="userSpaceOnUse" color-interpolation-filters="sRGB">
<feFlood flood-opacity="0" result="BackgroundImageFix"/>
<feGaussianBlur in="BackgroundImage" stdDeviation="5"/>
<feComposite in2="SourceAlpha" operator="in" result="effect1_backgroundBlur_17_56"/>
<feBlend mode="normal" in="SourceGraphic" in2="effect1_backgroundBlur_17_56" result="shape"/>
</filter>
<filter id="filter1_b_17_56" x="-9" y="-9" width="1103" height="366" filterUnits="userSpaceOnUse" color-interpolation-filters="sRGB">
<feFlood flood-opacity="0" result="BackgroundImageFix"/>
<feGaussianBlur in="BackgroundImage" stdDeviation="5"/>
<feComposite in2="SourceAlpha" operator="in" result="effect1_backgroundBlur_17_56"/>
<feBlend mode="normal" in="SourceGraphic" in2="effect1_backgroundBlur_17_56" result="shape"/>
</filter>
<filter id="filter2_f_17_56" x="296" y="-146.497" width="334.562" height="449.552" filterUnits="userSpaceOnUse" color-interpolation-filters="sRGB">
<feFlood flood-opacity="0" result="BackgroundImageFix"/>
<feBlend mode="normal" in="SourceGraphic" in2="BackgroundImageFix" result="shape"/>
<feGaussianBlur stdDeviation="42" result="effect1_foregroundBlur_17_56"/>
</filter>
<filter id="filter3_f_17_56" x="365.4" y="-88.3252" width="334.562" height="391.38" filterUnits="userSpaceOnUse" color-interpolation-filters="sRGB">
<feFlood flood-opacity="0" result="BackgroundImageFix"/>
<feBlend mode="normal" in="SourceGraphic" in2="BackgroundImageFix" result="shape"/>
<feGaussianBlur stdDeviation="42" result="effect1_foregroundBlur_17_56"/>
</filter>
<filter id="filter4_f_17_56" x="831.333" y="-88.2642" width="284.667" height="391.424" filterUnits="userSpaceOnUse" color-interpolation-filters="sRGB">
<feFlood flood-opacity="0" result="BackgroundImageFix"/>
<feBlend mode="normal" in="SourceGraphic" in2="BackgroundImageFix" result="shape"/>
<feGaussianBlur stdDeviation="42" result="effect1_foregroundBlur_17_56"/>
</filter>
<filter id="filter5_f_17_56" x="505.393" y="-76.6912" width="533.247" height="391.38" filterUnits="userSpaceOnUse" color-interpolation-filters="sRGB">
<feFlood flood-opacity="0" result="BackgroundImageFix"/>
<feBlend mode="normal" in="SourceGraphic" in2="BackgroundImageFix" result="shape"/>
<feGaussianBlur stdDeviation="42" result="effect1_foregroundBlur_17_56"/>
</filter>
<linearGradient id="paint0_linear_17_56" x1="603.429" y1="85.4274" x2="482.572" y2="85.4274" gradientUnits="userSpaceOnUse">
<stop stop-color="#3EA2FF"/>
<stop offset="1" stop-color="#7743E6"/>
</linearGradient>
<linearGradient id="paint1_linear_17_56" x1="402.429" y1="85.4274" x2="281.572" y2="85.4274" gradientUnits="userSpaceOnUse">
<stop stop-color="#3EA2FF"/>
<stop offset="1" stop-color="#7743E6"/>
</linearGradient>
<linearGradient id="paint2_linear_17_56" x1="201.429" y1="85.4274" x2="80.5716" y2="85.4274" gradientUnits="userSpaceOnUse">
<stop stop-color="#3EA2FF"/>
<stop offset="1" stop-color="#7743E6"/>
</linearGradient>
<linearGradient id="paint3_linear_17_56" x1="804.429" y1="85.4274" x2="683.572" y2="85.4274" gradientUnits="userSpaceOnUse">
<stop stop-color="#3EA2FF"/>
<stop offset="1" stop-color="#7743E6"/>
</linearGradient>
<linearGradient id="paint4_linear_17_56" x1="1005.43" y1="85.4274" x2="884.572" y2="85.4274" gradientUnits="userSpaceOnUse">
<stop stop-color="#3EA2FF"/>
<stop offset="1" stop-color="#7743E6"/>
</linearGradient>
<linearGradient id="paint5_linear_17_56" x1="402" y1="45.2613" x2="522.857" y2="45.2613" gradientUnits="userSpaceOnUse">
<stop stop-color="#3EA2FF"/>
<stop offset="1" stop-color="#7743E6"/>
</linearGradient>
<linearGradient id="paint6_linear_17_56" x1="201" y1="45.2613" x2="321.857" y2="45.2613" gradientUnits="userSpaceOnUse">
<stop stop-color="#3EA2FF"/>
<stop offset="1" stop-color="#7743E6"/>
</linearGradient>
<linearGradient id="paint7_linear_17_56" x1="-8.85651e-07" y1="45.2613" x2="120.857" y2="45.2613" gradientUnits="userSpaceOnUse">
<stop stop-color="#3EA2FF"/>
<stop offset="1" stop-color="#7743E6"/>
</linearGradient>
<linearGradient id="paint8_linear_17_56" x1="603" y1="45.2613" x2="723.857" y2="45.2613" gradientUnits="userSpaceOnUse">
<stop stop-color="#3EA2FF"/>
<stop offset="1" stop-color="#7743E6"/>
</linearGradient>
<linearGradient id="paint9_linear_17_56" x1="804" y1="45.2613" x2="924.857" y2="45.2613" gradientUnits="userSpaceOnUse">
<stop stop-color="#3EA2FF"/>
<stop offset="1" stop-color="#7743E6"/>
</linearGradient>
<linearGradient id="paint10_linear_17_56" x1="1005" y1="45.2613" x2="1125.86" y2="45.2613" gradientUnits="userSpaceOnUse">
<stop stop-color="#3EA2FF"/>
<stop offset="1" stop-color="#7743E6"/>
</linearGradient>
<linearGradient id="paint11_linear_17_56" x1="563.143" y1="145.857" x2="687.199" y2="105.334" gradientUnits="userSpaceOnUse">
<stop stop-color="#3EA2FF"/>
<stop offset="1" stop-color="#7743E6"/>
</linearGradient>
<linearGradient id="paint12_linear_17_56" x1="362.143" y1="145.857" x2="486.199" y2="105.334" gradientUnits="userSpaceOnUse">
<stop stop-color="#3EA2FF"/>
<stop offset="1" stop-color="#7743E6"/>
</linearGradient>
<linearGradient id="paint13_linear_17_56" x1="161.143" y1="145.857" x2="285.199" y2="105.334" gradientUnits="userSpaceOnUse">
<stop stop-color="#3EA2FF"/>
<stop offset="1" stop-color="#7743E6"/>
</linearGradient>
<linearGradient id="paint14_linear_17_56" x1="-39.4284" y1="145.857" x2="84.6279" y2="105.334" gradientUnits="userSpaceOnUse">
<stop stop-color="#3EA2FF"/>
<stop offset="1" stop-color="#7743E6"/>
</linearGradient>
<linearGradient id="paint15_linear_17_56" x1="764.143" y1="145.857" x2="888.199" y2="105.334" gradientUnits="userSpaceOnUse">
<stop stop-color="#3EA2FF"/>
<stop offset="1" stop-color="#7743E6"/>
</linearGradient>
<linearGradient id="paint16_linear_17_56" x1="965.143" y1="145.857" x2="1089.2" y2="105.334" gradientUnits="userSpaceOnUse">
<stop stop-color="#3EA2FF"/>
<stop offset="1" stop-color="#7743E6"/>
</linearGradient>
<linearGradient id="paint17_linear_17_56" x1="663" y1="311.5" x2="833" y2="311.5" gradientUnits="userSpaceOnUse">
<stop stop-color="white" stop-opacity="0"/>
<stop offset="1" stop-color="#010812"/>
</linearGradient>
<clipPath id="clip0_17_56">
<rect x="1" y="1" width="1083" height="337" fill="white"/>
</clipPath>
<clipPath id="clip1_17_56">
<rect width="120.857" height="120.857" fill="white" transform="translate(482.571 25)"/>
</clipPath>
<clipPath id="clip2_17_56">
<rect width="120.857" height="120.857" fill="white" transform="translate(281.571 25)"/>
</clipPath>
<clipPath id="clip3_17_56">
<rect width="120.857" height="120.857" fill="white" transform="translate(80.5713 25)"/>
</clipPath>
<clipPath id="clip4_17_56">
<rect width="120.857" height="120.857" fill="white" transform="translate(683.571 25)"/>
</clipPath>
<clipPath id="clip5_17_56">
<rect width="120.857" height="120.857" fill="white" transform="translate(884.571 25)"/>
</clipPath>
</defs>
</svg>
