<svg width="880" height="288" viewBox="0 0 880 288" fill="none" xmlns="http://www.w3.org/2000/svg">
<path fill-rule="evenodd" clip-rule="evenodd" d="M249 144V66C249 32.8629 222.137 6 189 6C155.863 6 129 32.8629 129 66V144H123V66C123 29.5492 152.549 0 189 0C225.451 0 255 29.5492 255 66V144H249Z" fill="url(#paint0_linear_240_4477)"/>
<path fill-rule="evenodd" clip-rule="evenodd" d="M501 144V66C501 32.8629 474.137 6 441 6C407.863 6 381 32.8629 381 66V144H375V66C375 29.5492 404.549 0 441 0C477.451 0 507 29.5492 507 66V144H501Z" fill="url(#paint1_linear_240_4477)"/>
<path fill-rule="evenodd" clip-rule="evenodd" d="M753 144V66C753 32.8629 726.137 6 693 6C659.863 6 633 32.8629 633 66V144H627V66C627 29.5492 656.549 0 693 0C729.451 0 759 29.5492 759 66V144H753Z" fill="url(#paint2_linear_240_4477)"/>
<path fill-rule="evenodd" clip-rule="evenodd" d="M255 144L255 222C255 255.137 281.863 282 315 282C348.137 282 375 255.137 375 222L375 144L381 144L381 222C381 258.451 351.451 288 315 288C278.549 288 249 258.451 249 222L249 144L255 144Z" fill="url(#paint3_linear_240_4477)"/>
<path fill-rule="evenodd" clip-rule="evenodd" d="M507 144L507 222C507 255.137 533.863 282 567 282C600.137 282 627 255.137 627 222L627 144L633 144L633 222C633 258.451 603.451 288 567 288C530.549 288 501 258.451 501 222L501 144L507 144Z" fill="url(#paint4_linear_240_4477)"/>
<path d="M7 144H129C129 147.314 126.314 150 123 150H7V144Z" fill="url(#paint5_linear_240_4477)"/>
<rect x="753" y="144" width="122" height="6" fill="url(#paint6_linear_240_4477)"/>
<path d="M880 147L860.5 158.258L860.5 135.742L880 147Z" fill="url(#paint7_linear_240_4477)"/>
<circle cx="11.5" cy="146.5" r="8.5" stroke="url(#paint8_linear_240_4477)" stroke-width="6"/>
<defs>
<linearGradient id="paint0_linear_240_4477" x1="189" y1="0" x2="189" y2="144" gradientUnits="userSpaceOnUse">
<stop stop-color="#40A0FF"/>
<stop offset="1" stop-color="#814BFD"/>
</linearGradient>
<linearGradient id="paint1_linear_240_4477" x1="441" y1="0" x2="441" y2="144" gradientUnits="userSpaceOnUse">
<stop stop-color="#40A0FF"/>
<stop offset="1" stop-color="#814BFD"/>
</linearGradient>
<linearGradient id="paint2_linear_240_4477" x1="693" y1="0" x2="693" y2="144" gradientUnits="userSpaceOnUse">
<stop stop-color="#40A0FF"/>
<stop offset="1" stop-color="#814BFD"/>
</linearGradient>
<linearGradient id="paint3_linear_240_4477" x1="315" y1="288" x2="315" y2="144" gradientUnits="userSpaceOnUse">
<stop stop-color="#40A0FF"/>
<stop offset="1" stop-color="#814BFD"/>
</linearGradient>
<linearGradient id="paint4_linear_240_4477" x1="567" y1="288" x2="567" y2="144" gradientUnits="userSpaceOnUse">
<stop stop-color="#40A0FF"/>
<stop offset="1" stop-color="#814BFD"/>
</linearGradient>
<linearGradient id="paint5_linear_240_4477" x1="114.5" y1="147" x2="12.5" y2="147" gradientUnits="userSpaceOnUse">
<stop stop-color="#814CFD"/>
<stop offset="1" stop-color="white" stop-opacity="0"/>
</linearGradient>
<linearGradient id="paint6_linear_240_4477" x1="814" y1="144" x2="814" y2="150" gradientUnits="userSpaceOnUse">
<stop stop-color="#40A0FF"/>
<stop offset="1" stop-color="#814BFD"/>
</linearGradient>
<linearGradient id="paint7_linear_240_4477" x1="860" y1="135.5" x2="860" y2="158.5" gradientUnits="userSpaceOnUse">
<stop stop-color="#40A0FF"/>
<stop offset="1" stop-color="#814BFD"/>
</linearGradient>
<linearGradient id="paint8_linear_240_4477" x1="11.5" y1="135" x2="11.5" y2="158" gradientUnits="userSpaceOnUse">
<stop stop-color="#40A0FF"/>
<stop offset="1" stop-color="#814BFD"/>
</linearGradient>
</defs>
</svg>
