<svg width="141" height="112" viewBox="0 0 141 112" fill="none" xmlns="http://www.w3.org/2000/svg">
<g filter="url(#filter0_f_365_11518)">
<ellipse cx="69.5961" cy="77.0699" rx="32.4782" ry="4.91266" fill="#4EA885"/>
</g>
<path d="M127.266 41.9894L26.2664 8.66615C13.3271 4.39704 0 14.0337 0 27.6591V85.6139C0 96.6596 8.95431 105.614 20 105.614H121C132.046 105.614 141 96.6596 141 85.6139V60.9823C141 52.3512 135.463 44.6937 127.266 41.9894Z" fill="#083753"/>
<path d="M127.032 42.3612L26.032 10.4121C13.1396 6.33391 0 15.9588 0 29.4808V83.4362C0 94.4819 8.95431 103.436 20 103.436H121C132.046 103.436 141 94.4819 141 83.4362V61.4299C141 52.7079 135.348 44.9917 127.032 42.3612Z" fill="#DFF4FF"/>
<g filter="url(#filter1_f_365_11518)">
<ellipse cx="69.4114" cy="76.7607" rx="32.3919" ry="4.89961" fill="#083753"/>
</g>
<defs>
<filter id="filter0_f_365_11518" x="7.11792" y="42.1572" width="124.956" height="69.8254" filterUnits="userSpaceOnUse" color-interpolation-filters="sRGB">
<feFlood flood-opacity="0" result="BackgroundImageFix"/>
<feBlend mode="normal" in="SourceGraphic" in2="BackgroundImageFix" result="shape"/>
<feGaussianBlur stdDeviation="15" result="effect1_foregroundBlur_365_11518"/>
</filter>
<filter id="filter1_f_365_11518" x="7.01953" y="41.8611" width="124.784" height="69.7993" filterUnits="userSpaceOnUse" color-interpolation-filters="sRGB">
<feFlood flood-opacity="0" result="BackgroundImageFix"/>
<feBlend mode="normal" in="SourceGraphic" in2="BackgroundImageFix" result="shape"/>
<feGaussianBlur stdDeviation="15" result="effect1_foregroundBlur_365_11518"/>
</filter>
</defs>
</svg>
