<svg width="47" height="28" viewBox="0 0 47 28" fill="none" xmlns="http://www.w3.org/2000/svg">
<path d="M1.72731 2.39815V21H5.39454V14.888H8.66315C10.4436 14.888 11.9583 14.2768 13.1807 13.0809C14.4031 11.8851 15.0144 10.3969 15.0144 8.64306C15.0144 6.88917 14.4031 5.40102 13.1807 4.20519C11.9583 3.00935 10.4436 2.39815 8.66315 2.39815H1.72731ZM5.39454 11.4599V5.8262H8.66315C10.231 5.8262 11.3737 7.02204 11.3737 8.64306C11.3737 10.2375 10.231 11.4599 8.66315 11.4599H5.39454ZM24.7895 11.4333L31.6721 2.39815H27.4469L21.0691 10.6095V2.39815H17.4019V21H21.0691V12.2837L27.7126 21H31.9379L24.7895 11.4333ZM32.3693 2.39815V5.90593H37.3652V21H41.0324V5.90593H46.0549V2.39815H32.3693Z" fill="#333333"/>
<mask id="mask0_28_1166" style="mask-type:alpha" maskUnits="userSpaceOnUse" x="1" y="2" width="46" height="19">
<path d="M1.72731 2.39815V21H5.39454V14.888H8.66315C10.4436 14.888 11.9583 14.2768 13.1807 13.0809C14.4031 11.8851 15.0144 10.3969 15.0144 8.64306C15.0144 6.88917 14.4031 5.40102 13.1807 4.20519C11.9583 3.00935 10.4436 2.39815 8.66315 2.39815H1.72731ZM5.39454 11.4599V5.8262H8.66315C10.231 5.8262 11.3737 7.02204 11.3737 8.64306C11.3737 10.2375 10.231 11.4599 8.66315 11.4599H5.39454ZM24.7895 11.4333L31.6721 2.39815H27.4469L21.0691 10.6095V2.39815H17.4019V21H21.0691V12.2837L27.7126 21H31.9379L24.7895 11.4333ZM32.3693 2.39815V5.90593H37.3652V21H41.0324V5.90593H46.0549V2.39815H32.3693Z" fill="#333333"/>
</mask>
<g mask="url(#mask0_28_1166)">
<rect x="16.1714" y="-2.625" width="15.75" height="15.75" fill="white"/>
<rect x="17.0464" y="-4.375" width="14.875" height="14.875" fill="#083753"/>
</g>
</svg>
