<svg width="103" height="103" viewBox="0 0 103 103" fill="none" xmlns="http://www.w3.org/2000/svg">
<circle cx="51.5" cy="51.5" r="47.6132" fill="#041742" stroke="#1D3260" stroke-width="7.77358"/>
<path fill-rule="evenodd" clip-rule="evenodd" d="M51.5 99.1132C77.796 99.1132 99.1132 77.796 99.1132 51.5C99.1132 25.2039 77.796 3.88679 51.5 3.88679C25.2039 3.88679 3.88679 25.2039 3.88679 51.5C3.88679 77.796 25.2039 99.1132 51.5 99.1132ZM51.5 103C79.9426 103 103 79.9426 103 51.5C103 23.0573 79.9426 0 51.5 0C23.0573 0 0 23.0573 0 51.5C0 79.9426 23.0573 103 51.5 103Z" fill="url(#paint0_linear_561_6954)"/>
<path fill-rule="evenodd" clip-rule="evenodd" d="M46.8709 24.4336L46.8709 10.6885H56.8326L56.8326 24.4336L73.2469 24.4336V34.3094L40.8762 34.3094L55.2196 49.5151H43.3843L28.1787 33.2905V24.4336L46.8709 24.4336Z" fill="white"/>
<path fill-rule="evenodd" clip-rule="evenodd" d="M46.8706 78.525L46.8706 92.27L56.8323 92.27L56.8323 78.525L73.2469 78.525L73.2469 68.6492L40.8762 68.6492L55.2196 53.4436L43.3843 53.4436L28.1787 69.6681L28.1787 78.525L46.8706 78.525Z" fill="url(#paint1_linear_561_6954)"/>
<defs>
<linearGradient id="paint0_linear_561_6954" x1="16.033" y1="16.5189" x2="99.0972" y2="40.8354" gradientUnits="userSpaceOnUse">
<stop stop-color="#02A9D3"/>
<stop offset="0.479167" stop-color="#2F80ED"/>
<stop offset="1" stop-color="#08DB8D"/>
</linearGradient>
<linearGradient id="paint1_linear_561_6954" x1="47.6127" y1="89.8825" x2="74.8203" y2="71.9061" gradientUnits="userSpaceOnUse">
<stop stop-color="#01A4DC"/>
<stop offset="1" stop-color="#08DA8E"/>
</linearGradient>
</defs>
</svg>
