<svg width="24" height="21" viewBox="0 0 24 21" fill="none" xmlns="http://www.w3.org/2000/svg">
<path d="M9.02692 18.9107C8.31185 18.9107 8.43342 18.6407 8.18678 17.9599L6.08423 11.0403L22.269 1.43848" fill="#C8DAEA"/>
<path d="M9.02698 18.9108C9.57873 18.9108 9.82242 18.6585 10.1305 18.359L13.0732 15.4976L9.40254 13.2842" fill="#A9C9DD"/>
<path d="M9.40215 13.2844L18.2964 19.8556C19.3115 20.4157 20.0438 20.1256 20.2967 18.9134L23.9172 1.85261C24.2878 0.366553 23.3507 -0.307692 22.3796 0.13316L1.12049 8.33058C-0.330623 8.91269 -0.321979 9.72229 0.856018 10.083L6.31159 11.7859L18.9418 3.8176C19.5381 3.45601 20.0854 3.65023 19.6363 4.04897" fill="url(#paint0_linear_924_708)"/>
<defs>
<linearGradient id="paint0_linear_924_708" x1="15.84" y1="8.79674" x2="19.2843" y2="16.6443" gradientUnits="userSpaceOnUse">
<stop stop-color="#EFF7FC"/>
<stop offset="1" stop-color="white"/>
</linearGradient>
</defs>
</svg>
