<svg width="194" height="200" viewBox="0 0 194 200" fill="none" xmlns="http://www.w3.org/2000/svg">
<mask id="mask0_19_93" style="mask-type:alpha" maskUnits="userSpaceOnUse" x="0" y="0" width="194" height="200">
<rect width="194" height="200" rx="97" fill="white"/>
</mask>
<g mask="url(#mask0_19_93)">
<mask id="mask1_19_93" style="mask-type:alpha" maskUnits="userSpaceOnUse" x="36" y="39" width="122" height="122">
<circle cx="97" cy="100" r="61" fill="white"/>
</mask>
<g mask="url(#mask1_19_93)">
<rect x="36" y="39" width="122" height="122" fill="black"/>
<path d="M120.855 87.2433V71.8616H73.7725L79.8627 87.2433H120.855ZM118.512 108.247V94.1144H96.1814C86.8118 94.1144 79.9408 100.595 79.9408 110.043C79.9408 111.76 79.9408 113.478 79.9408 115.118L80.0189 125.424C80.0189 127.064 80.0189 128.782 80.0189 130.5H96.4157L96.3376 108.247H118.512Z" fill="url(#paint0_linear_19_93)"/>
</g>
<path d="M39.4495 19.1872C56.3859 7.11052 76.7108 0.705552 97.5111 0.89028L97.2871 26.11C81.8126 25.9725 66.6919 30.7375 54.092 39.722L39.4495 19.1872Z" fill="#7AFFC7"/>
<path d="M154.779 19.8768C175.434 34.9805 189.401 57.5291 193.723 82.7495C198.045 107.97 192.383 133.882 177.936 155.002C163.488 176.121 141.389 190.789 116.317 195.902C91.245 201.014 65.1674 196.169 43.6048 182.392L57.1352 161.215C73.1966 171.477 92.621 175.086 111.296 171.278C129.972 167.47 146.433 156.544 157.194 140.813C167.956 125.082 172.173 105.78 168.953 86.9944C165.734 68.2085 155.331 51.4127 139.945 40.1625L154.779 19.8768Z" fill="url(#paint1_linear_19_93)"/>
<path d="M43.4671 182.304C25.9567 171.075 12.4503 154.592 4.88386 135.216C-2.68262 115.84 -3.92077 94.5654 1.34686 74.4422L26.0579 80.9108C22.1563 95.8155 23.0734 111.573 28.6777 125.924C34.2819 140.276 44.2857 152.484 57.2553 160.801L43.4671 182.304Z" fill="#7B54FE"/>
<path d="M1.41014 74.2056C7.26992 52.0459 20.6744 32.6236 39.3146 19.2844L53.9918 39.7945C40.1245 49.7181 30.1521 64.1674 25.7927 80.6532L1.41014 74.2056Z" fill="#82F0FF"/>
<path d="M97.1601 0.88775C117.961 0.998535 138.193 7.6916 154.956 20.0077L140.023 40.3324C127.552 31.1698 112.501 26.1905 97.0258 26.1081L97.1601 0.88775Z" fill="#63ABFD"/>
</g>
<defs>
<linearGradient id="paint0_linear_19_93" x1="72.6013" y1="67.0602" x2="133.834" y2="108.55" gradientUnits="userSpaceOnUse">
<stop stop-color="#8844FE"/>
<stop offset="1" stop-color="#7DAEFE"/>
</linearGradient>
<linearGradient id="paint1_linear_19_93" x1="157" y1="21.5" x2="63" y2="193.5" gradientUnits="userSpaceOnUse">
<stop stop-color="#E697FF"/>
<stop offset="1" stop-color="#C34EE8"/>
</linearGradient>
</defs>
</svg>
