<svg width="43" height="43" viewBox="0 0 43 43" fill="none" xmlns="http://www.w3.org/2000/svg">
<path d="M3.86014 26.3067L2.22766 24.6969C0.481809 22.9284 0.481809 20.0716 2.22766 18.3031C4.04152 16.5119 6.89837 16.5119 8.66689 18.3031L14.5166 24.1301L24.1301 14.5166L18.3031 8.66689C16.5119 6.89837 16.5119 4.04152 18.3031 2.22766C20.0716 0.481809 22.9284 0.481809 24.6969 2.22766L26.3067 3.86014L39.1399 16.6933L40.7723 18.3031C42.5182 20.0716 42.5182 22.9284 40.7723 24.6969C38.9585 26.4881 36.1016 26.4881 34.3331 24.6969L28.4834 18.8699L18.8699 28.4834L24.6969 34.3331C26.4881 36.1016 26.4881 38.9585 24.6969 40.7723C22.9284 42.5182 20.0716 42.5182 18.3031 40.7723L16.6933 39.1399L3.86014 26.3067ZM1.45676 38.3236L3.86014 35.9202L0.663195 32.7233C-0.221065 31.839 -0.221065 30.4106 0.663195 29.5264C1.54746 28.6421 2.97588 28.6421 3.86014 29.5264L13.4736 39.1399C14.3579 40.0241 14.3579 41.4525 13.4736 42.3368C12.5894 43.2211 11.161 43.2211 10.2767 42.3368L7.07975 39.1399L4.67638 41.5432L1.45676 38.3236ZM38.3236 1.45676L41.5432 4.67638L39.1399 7.07975L42.3368 10.2767C43.2211 11.161 43.2211 12.5894 42.3368 13.4736C41.4525 14.3806 40.0241 14.3806 39.1399 13.4736L29.5264 3.86014C28.6421 2.97588 28.6421 1.54746 29.5264 0.663195C30.4106 -0.221065 31.839 -0.221065 32.7233 0.663195L35.9202 3.86014L38.3236 1.45676Z" fill="#231F20"/>
</svg>
