<svg width="126" height="126" viewBox="0 0 126 126" fill="none" xmlns="http://www.w3.org/2000/svg">
<g clip-path="url(#clip0_30_2822)">
<path d="M87.5584 63.4963C87.5584 68.2431 86.1508 72.8832 83.5137 76.83C80.8765 80.7768 77.1282 83.8529 72.7428 85.6694C68.3574 87.4859 63.5318 87.9612 58.8762 87.0352C54.2207 86.1091 49.9443 83.8234 46.5878 80.4669C43.2314 77.1104 40.9456 72.834 40.0195 68.1785C39.0935 63.523 39.5688 58.6974 41.3853 54.3119C43.2018 49.9265 46.2779 46.1782 50.2247 43.5411C54.1715 40.9039 58.8116 39.4963 63.5584 39.4963L63.5584 54.66C61.8107 54.66 60.1023 55.1782 58.6492 56.1492C57.196 57.1201 56.0635 58.5002 55.3947 60.1148C54.7259 61.7294 54.5509 63.5061 54.8918 65.2202C55.2328 66.9343 56.0744 68.5088 57.3101 69.7446C58.5459 70.9804 60.1204 71.8219 61.8345 72.1629C63.5486 72.5038 65.3253 72.3288 66.9399 71.66C68.5545 70.9912 69.9346 69.8587 70.9055 68.4055C71.8765 66.9524 72.3947 65.244 72.3947 63.4963H87.5584Z" fill="url(#paint0_linear_30_2822)"/>
<g filter="url(#filter0_d_30_2822)">
<mask id="path-2-inside-1_30_2822" fill="white">
<path fill-rule="evenodd" clip-rule="evenodd" d="M68.5738 28.3616C68.5582 29.7016 68.5582 31.1934 68.5582 32.867V36.6524C68.5582 44.3516 68.5582 48.2012 70.0803 51.1313C71.3629 53.6006 73.3763 55.6139 75.8455 56.8965C78.7756 58.4186 82.6252 58.4186 90.3244 58.4186H94.1098C95.7834 58.4186 97.2751 58.4186 98.615 58.403C98.8533 60.0638 98.9767 61.7616 98.9767 63.4883C98.9767 83.088 83.088 98.9767 63.4883 98.9767C43.8887 98.9767 28 83.088 28 63.4883C28 43.8887 43.8887 28 63.4883 28C65.2151 28 66.913 28.1233 68.5738 28.3616Z"/>
</mask>
<path d="M68.5738 28.3616L71.5736 28.3967L71.6043 25.7658L69 25.3921L68.5738 28.3616ZM70.0803 51.1313L67.418 52.5143L67.418 52.5143L70.0803 51.1313ZM75.8455 56.8965L74.4626 59.5588L74.4626 59.5588L75.8455 56.8965ZM98.615 58.403L101.585 57.9769L101.211 55.3725L98.58 55.4032L98.615 58.403ZM71.5582 32.867C71.5582 31.1885 71.5582 29.7156 71.5736 28.3967L65.574 28.3266C65.5581 29.6876 65.5582 31.1982 65.5582 32.867H71.5582ZM71.5582 36.6524V32.867H65.5582V36.6524H71.5582ZM72.7425 49.7484C72.241 48.7829 71.9127 47.5342 71.7382 45.432C71.5606 43.2939 71.5582 40.5524 71.5582 36.6524H65.5582C65.5582 40.4517 65.5558 43.4845 65.7587 45.9285C65.9647 48.4085 66.3975 50.5496 67.418 52.5143L72.7425 49.7484ZM77.2284 54.2343C75.3071 53.2363 73.7406 51.6697 72.7425 49.7484L67.418 52.5143C68.9853 55.5314 71.4454 57.9915 74.4626 59.5588L77.2284 54.2343ZM90.3244 55.4186C86.4244 55.4186 83.6829 55.4162 81.5448 55.2387C79.4426 55.0641 78.1939 54.7358 77.2284 54.2343L74.4626 59.5588C76.4272 60.5793 78.5683 61.0121 81.0483 61.2181C83.4923 61.421 86.5252 61.4186 90.3244 61.4186V55.4186ZM94.1098 55.4186H90.3244V61.4186H94.1098V55.4186ZM98.58 55.4032C97.2611 55.4186 95.7882 55.4186 94.1098 55.4186V61.4186C95.7786 61.4186 97.2891 61.4187 98.65 61.4028L98.58 55.4032ZM95.6455 58.8291C95.8636 60.3492 95.9767 61.9047 95.9767 63.4883H101.977C101.977 61.6186 101.843 59.7783 101.585 57.9769L95.6455 58.8291ZM95.9767 63.4883C95.9767 81.4311 81.4311 95.9767 63.4883 95.9767V101.977C84.7448 101.977 101.977 84.7448 101.977 63.4883H95.9767ZM63.4883 95.9767C45.5455 95.9767 31 81.4311 31 63.4883H25C25 84.7448 42.2318 101.977 63.4883 101.977V95.9767ZM31 63.4883C31 45.5455 45.5455 31 63.4883 31V25C42.2318 25 25 42.2318 25 63.4883H31ZM63.4883 31C65.072 31 66.6276 31.1131 68.1477 31.3312L69 25.3921C67.1984 25.1336 65.3581 25 63.4883 25V31Z" fill="url(#paint1_linear_30_2822)" mask="url(#path-2-inside-1_30_2822)"/>
</g>
</g>
<defs>
<filter id="filter0_d_30_2822" x="0.961271" y="7.72095" width="125.054" height="125.054" filterUnits="userSpaceOnUse" color-interpolation-filters="sRGB">
<feFlood flood-opacity="0" result="BackgroundImageFix"/>
<feColorMatrix in="SourceAlpha" type="matrix" values="0 0 0 0 0 0 0 0 0 0 0 0 0 0 0 0 0 0 127 0" result="hardAlpha"/>
<feOffset dy="6.75968"/>
<feGaussianBlur stdDeviation="13.5194"/>
<feComposite in2="hardAlpha" operator="out"/>
<feColorMatrix type="matrix" values="0 0 0 0 0 0 0 0 0 0 0 0 0 0 0 0 0 0 0.12 0"/>
<feBlend mode="normal" in2="BackgroundImageFix" result="effect1_dropShadow_30_2822"/>
<feBlend mode="normal" in="SourceGraphic" in2="effect1_dropShadow_30_2822" result="shape"/>
</filter>
<linearGradient id="paint0_linear_30_2822" x1="79.229" y1="40.6258" x2="63.5584" y2="87.4963" gradientUnits="userSpaceOnUse">
<stop stop-color="#734BE8"/>
<stop offset="1" stop-color="#409FFE"/>
</linearGradient>
<linearGradient id="paint1_linear_30_2822" x1="63.4883" y1="28" x2="63.4883" y2="98.9767" gradientUnits="userSpaceOnUse">
<stop stop-color="#484848"/>
<stop offset="1" stop-color="#2C3470" stop-opacity="0.49"/>
<stop offset="1" stop-color="#090909"/>
</linearGradient>
<clipPath id="clip0_30_2822">
<rect width="126" height="126" fill="white"/>
</clipPath>
</defs>
</svg>
