<svg width="48" height="48" viewBox="0 0 48 48" fill="none" xmlns="http://www.w3.org/2000/svg">
<path d="M48 24C48 28.7468 46.5924 33.3869 43.9553 37.3337C41.3181 41.2805 37.5698 44.3566 33.1844 46.1731C28.799 47.9896 23.9734 48.4649 19.3178 47.5388C14.6623 46.6128 10.3859 44.327 7.02944 40.9706C3.67298 37.6141 1.3872 33.3377 0.461153 28.6822C-0.464892 24.0266 0.0103881 19.201 1.82689 14.8156C3.64339 10.4302 6.71953 6.68188 10.6663 4.04473C14.6131 1.40758 19.2532 -5.66044e-08 24 0L24 15.1637C22.2523 15.1637 20.5439 15.6819 19.0908 16.6529C17.6377 17.6238 16.5051 19.0039 15.8363 20.6185C15.1675 22.2331 14.9925 24.0098 15.3335 25.7239C15.6744 27.438 16.516 29.0124 17.7518 30.2482C18.9876 31.484 20.562 32.3256 22.2761 32.6665C23.9902 33.0075 25.7669 32.8325 27.3815 32.1637C28.9961 31.4949 30.3762 30.3623 31.3471 28.9092C32.3181 27.4561 32.8363 25.7477 32.8363 24H48Z" fill="url(#paint0_linear_9_2829)"/>
<defs>
<linearGradient id="paint0_linear_9_2829" x1="39.6706" y1="1.12941" x2="24" y2="48" gradientUnits="userSpaceOnUse">
<stop stop-color="#734BE8"/>
<stop offset="1" stop-color="#409FFE"/>
</linearGradient>
</defs>
</svg>
