<svg width="290" height="290" viewBox="0 0 290 290" fill="none" xmlns="http://www.w3.org/2000/svg">
<g clip-path="url(#clip0_7_2827)">
<g opacity="0.2" filter="url(#filter0_b_7_2827)">
<path d="M134.376 95C139.764 85.6667 153.236 85.6667 158.624 95L258.65 268.25C264.039 277.583 257.303 289.25 246.526 289.25H46.4741C35.6969 289.25 28.9611 277.583 34.3497 268.25L134.376 95Z" fill="black" fill-opacity="0.05"/>
<path d="M157.758 95.5L257.784 268.75C262.788 277.417 256.533 288.25 246.526 288.25H46.4741C36.4667 288.25 30.212 277.417 35.2157 268.75L135.242 95.5C140.245 86.8333 152.755 86.8333 157.758 95.5Z" stroke="url(#paint0_linear_7_2827)" stroke-opacity="0.4" stroke-width="2"/>
</g>
<g opacity="0.3" filter="url(#filter1_b_7_2827)">
<path d="M273.031 3.59058C283.808 3.59058 290.544 15.2572 285.155 24.5906L156.813 246.885C151.425 256.218 137.953 256.219 132.564 246.885L4.22259 24.5906C-1.16601 15.2573 5.56972 3.59057 16.3469 3.59057L273.031 3.59058Z" fill="url(#paint1_linear_7_2827)" fill-opacity="0.5"/>
</g>
<g filter="url(#filter2_b_7_2827)">
<path d="M261.219 17.1718C266.608 17.1718 269.976 23.0051 267.281 27.6718L151.234 228.672C148.54 233.338 141.804 233.338 139.11 228.672L23.0621 27.6717C20.3678 23.0051 23.7357 17.1718 29.1243 17.1718L261.219 17.1718Z" fill="black" fill-opacity="0.8"/>
<path d="M266.415 27.1718L150.368 228.172C148.058 232.172 142.285 232.172 139.976 228.172L23.9282 27.1717C21.6188 23.1718 24.5055 18.1718 29.1243 18.1718L261.219 18.1718C265.838 18.1718 268.725 23.1718 266.415 27.1718Z" stroke="url(#paint2_linear_7_2827)" stroke-width="2"/>
</g>
</g>
<defs>
<filter id="filter0_b_7_2827" x="-37.5469" y="18" width="368.094" height="341.25" filterUnits="userSpaceOnUse" color-interpolation-filters="sRGB">
<feFlood flood-opacity="0" result="BackgroundImageFix"/>
<feGaussianBlur in="BackgroundImage" stdDeviation="35"/>
<feComposite in2="SourceAlpha" operator="in" result="effect1_backgroundBlur_7_2827"/>
<feBlend mode="normal" in="SourceGraphic" in2="effect1_backgroundBlur_7_2827" result="shape"/>
</filter>
<filter id="filter1_b_7_2827" x="-67.674" y="-66.4094" width="424.725" height="390.295" filterUnits="userSpaceOnUse" color-interpolation-filters="sRGB">
<feFlood flood-opacity="0" result="BackgroundImageFix"/>
<feGaussianBlur in="BackgroundImage" stdDeviation="35"/>
<feComposite in2="SourceAlpha" operator="in" result="effect1_backgroundBlur_7_2827"/>
<feBlend mode="normal" in="SourceGraphic" in2="effect1_backgroundBlur_7_2827" result="shape"/>
</filter>
<filter id="filter2_b_7_2827" x="-47.8861" y="-52.8282" width="386.116" height="355" filterUnits="userSpaceOnUse" color-interpolation-filters="sRGB">
<feFlood flood-opacity="0" result="BackgroundImageFix"/>
<feGaussianBlur in="BackgroundImage" stdDeviation="35"/>
<feComposite in2="SourceAlpha" operator="in" result="effect1_backgroundBlur_7_2827"/>
<feBlend mode="normal" in="SourceGraphic" in2="effect1_backgroundBlur_7_2827" result="shape"/>
</filter>
<linearGradient id="paint0_linear_7_2827" x1="146.5" y1="151" x2="146.5" y2="293.396" gradientUnits="userSpaceOnUse">
<stop stop-color="white" stop-opacity="0"/>
<stop offset="1" stop-color="white"/>
</linearGradient>
<linearGradient id="paint1_linear_7_2827" x1="145.202" y1="1.95827" x2="145" y2="237.237" gradientUnits="userSpaceOnUse">
<stop stop-color="white"/>
<stop offset="1" stop-color="white" stop-opacity="0"/>
</linearGradient>
<linearGradient id="paint2_linear_7_2827" x1="259.672" y1="25.0651" x2="77.3831" y2="130.31" gradientUnits="userSpaceOnUse">
<stop stop-color="#666666"/>
<stop offset="1" stop-color="#262626"/>
</linearGradient>
<clipPath id="clip0_7_2827">
<rect width="290" height="290" fill="white"/>
</clipPath>
</defs>
</svg>
