<svg width="116" height="29" viewBox="0 0 116 29" fill="none" xmlns="http://www.w3.org/2000/svg">
<path d="M8.676 8.956C8.676 7.48 10.332 7.12 11.52 7.12C14.292 7.12 15.912 8.272 17.676 10.36L22.284 5.572C19.296 2.62 15.948 0.675998 11.7 0.675998C6.804 0.675998 1.656 3.736 1.656 9.172C1.656 18.748 15.372 16.516 15.372 19.756C15.372 21.268 13.464 21.772 12.24 21.772C9.612 21.772 7.344 20.332 5.76 18.028L0.72 23.392C3.6 26.776 7.956 28.396 12.348 28.396C17.1 28.396 22.752 25.768 22.752 20.224C22.752 9.388 8.676 12.556 8.676 8.956ZM56.4604 28L60.0244 8.056L63.6604 0.963998H53.7244L50.4124 19.504L46.2364 0.963998H39.4324L35.1484 19.504L31.9444 0.963998H24.3844L29.0644 28H39.5764L42.8164 13.924L45.9484 28H56.4604ZM71.2167 23.5H80.8647L82.5207 28H90.6207L80.0367 0.963998H67.2567L69.6327 6.904L66.9687 13.816H70.6047C73.1607 13.816 75.2127 12.448 76.0047 10.252L78.4887 16.984H71.0007C67.7247 16.984 65.0967 18.676 64.0167 21.484L61.4967 28H69.5967L71.2167 23.5ZM106.156 0.963998H90.8564L93.7004 8.056H105.472C106.84 8.056 107.992 9.172 107.992 10.54C107.992 11.944 106.876 13.06 105.472 13.06H100.36C96.6884 13.06 93.7364 16.012 93.7364 19.684L93.7724 28H101.332L101.296 20.008H106.156C111.34 20.008 115.552 15.796 115.552 10.576V10.324C115.552 5.14 111.34 0.963998 106.156 0.963998Z" fill="url(#paint0_linear_70_114316)"/>
<defs>
<linearGradient id="paint0_linear_70_114316" x1="73.3012" y1="-3" x2="76.7558" y2="63.8214" gradientUnits="userSpaceOnUse">
<stop stop-color="white"/>
<stop offset="1" stop-color="white" stop-opacity="0"/>
</linearGradient>
</defs>
</svg>
