<svg width="52" height="53" viewBox="0 0 52 53" fill="none" xmlns="http://www.w3.org/2000/svg">
<path d="M26.1983 52.3999C40.4464 52.3999 51.9967 40.7593 51.9967 26.3999C51.9967 12.0405 40.4464 0.399902 26.1983 0.399902C11.9502 0.399902 0.399902 12.0405 0.399902 26.3999C0.399902 40.7593 11.9502 52.3999 26.1983 52.3999Z" fill="#F0B90B"/>
<path d="M26.4417 10.1499L17.877 15.128L21.026 16.967L26.4417 13.828L31.8577 16.967L35.0064 15.128L26.4417 10.1499Z" fill="white"/>
<path d="M31.8577 19.5671L35.0064 21.4061V25.0841L29.5907 28.2233V34.5013L26.4417 36.3402L23.293 34.5013V28.2233L17.877 25.0841V21.4061L21.026 19.5671L26.4417 22.7061L31.8577 19.5671Z" fill="white"/>
<path d="M35.0066 27.6838V31.3619L31.8579 33.201V29.523L35.0066 27.6838Z" fill="white"/>
<path d="M31.8262 35.8012L37.2422 32.662V26.384L40.3909 24.5452V34.5012L31.8262 39.4792V35.8012Z" fill="white"/>
<path d="M37.2424 20.106L34.0938 18.267L37.2424 16.428L40.3911 18.267V21.9451L37.2424 23.784V20.106Z" fill="white"/>
<path d="M23.293 40.8106V37.1326L26.4417 38.9717L29.5907 37.1326V40.8106L26.4417 42.6498L23.293 40.8106Z" fill="white"/>
<path d="M21.026 33.201L17.877 31.3619V27.6838L21.026 29.523V33.201Z" fill="white"/>
<path d="M26.4417 20.106L23.293 18.267L26.4417 16.428L29.5907 18.267L26.4417 20.106Z" fill="white"/>
<path d="M18.7904 18.267L15.6417 20.106V23.784L12.4927 21.9451V18.267L15.6417 16.428L18.7904 18.267Z" fill="white"/>
<path d="M12.4927 24.5452L15.6417 26.384V32.662L21.0574 35.8012V39.4792L12.4927 34.5012V24.5452Z" fill="white"/>
</svg>
