<svg width="48" height="48" viewBox="0 0 48 48" fill="none" xmlns="http://www.w3.org/2000/svg">
<mask id="mask0_1088_1127" style="mask-type:alpha" maskUnits="userSpaceOnUse" x="0" y="0" width="48" height="48">
<circle cx="24" cy="24" r="24" fill="white"/>
</mask>
<g mask="url(#mask0_1088_1127)">
<rect width="48" height="48" fill="black"/>
<path fill-rule="evenodd" clip-rule="evenodd" d="M18.6036 12.0841C18.2942 12.2443 18.2139 12.4337 18.1944 13.0489L18.1771 13.5957H16.1962C14.0067 13.5957 13.9833 13.5989 13.7546 13.9356C13.6457 14.096 13.6407 14.1545 13.6262 15.4494L13.6111 16.7963H24.3055H35L34.9849 15.4494C34.9625 13.4576 35.1543 13.5957 32.4103 13.5957H30.4248V13.1103C30.4248 12.3307 30.2087 12.022 29.663 12.022C29.1174 12.022 28.9013 12.3307 28.9013 13.1103V13.5957H26.9716H25.0419V13.1103C25.0419 12.3307 24.8258 12.022 24.2801 12.022C23.7345 12.022 23.5184 12.3307 23.5184 13.1103V13.5957H21.6141H19.7098L19.709 13.1022C19.7083 12.6902 19.6894 12.5745 19.5947 12.401C19.3937 12.0326 18.9667 11.8961 18.6036 12.0841ZM13.5464 19.0702C13.3445 23.0361 11.7856 27.0893 9.52984 29.5131C9.28695 29.7741 9.06722 30.0457 9.04152 30.1167C8.91645 30.4622 9.08484 30.9239 9.40025 31.1002C9.57087 31.1956 9.94016 31.1991 19.6983 31.1991C29.5877 31.1991 29.8238 31.1967 30.0078 31.0964C30.1114 31.0399 30.3591 30.8179 30.5582 30.603C31.9584 29.0911 33.2115 26.8418 33.9508 24.5131C34.4823 22.8389 34.8501 20.8023 34.9278 19.1034L34.9601 18.3966H24.2703H13.5807L13.5464 19.0702ZM34.8473 26.5896C34.1594 28.3619 32.8587 30.4428 31.6371 31.7256C31.0875 32.3028 30.8345 32.4987 30.4333 32.6583L30.1455 32.7727L21.8807 32.7868L13.616 32.8009V34.0826C13.616 35.2617 13.6241 35.3809 13.7182 35.5746C13.784 35.7102 13.8919 35.8235 14.0209 35.8926C14.2198 35.9991 14.299 36 24.3055 36C34.3121 36 34.3913 35.9991 34.5902 35.8926C34.7194 35.8234 34.8271 35.7102 34.8932 35.5741C34.994 35.3665 34.9955 35.2858 34.9827 30.8187L34.9697 26.2744L34.8473 26.5896Z" fill="url(#paint0_linear_1088_1127)"/>
</g>
<defs>
<linearGradient id="paint0_linear_1088_1127" x1="22" y1="12" x2="35" y2="36" gradientUnits="userSpaceOnUse">
<stop stop-color="#6856E5"/>
<stop offset="1" stop-color="#4E8EFD"/>
</linearGradient>
</defs>
</svg>
