<svg width="30" height="30" viewBox="0 0 30 30" fill="none" xmlns="http://www.w3.org/2000/svg">
<mask id="mask0_78_760" style="mask-type:alpha" maskUnits="userSpaceOnUse" x="0" y="0" width="30" height="30">
<circle cx="15" cy="15" r="15" fill="white"/>
</mask>
<g mask="url(#mask0_78_760)">
<rect width="30" height="30" fill="black"/>
<path d="M15 31C23.8366 31 31 23.8366 31 15C31 6.16344 23.8366 -1 15 -1C6.16344 -1 -1 6.16344 -1 15C-1 23.8366 6.16344 31 15 31Z" fill="#F0B90B"/>
<path d="M15.1512 5L9.83936 8.06342L11.7924 9.19512L15.1512 7.26342L18.5102 9.19512L20.463 8.06342L15.1512 5Z" fill="white"/>
<path d="M18.5102 10.7949L20.463 11.9266V14.19L17.1042 16.1218V19.9852L15.1512 21.1168L13.1984 19.9852V16.1218L9.83936 14.19V11.9266L11.7924 10.7949L15.1512 12.7266L18.5102 10.7949Z" fill="white"/>
<path d="M20.4631 15.79V18.0534L18.5103 19.1852V16.9218L20.4631 15.79Z" fill="white"/>
<path d="M18.4907 20.7852L21.8497 18.8534V14.99L23.8025 13.8584V19.9852L18.4907 23.0486V20.7852Z" fill="white"/>
<path d="M21.8498 11.1267L19.897 9.99498L21.8498 8.86328L23.8026 9.99498V12.2585L21.8498 13.3901V11.1267Z" fill="white"/>
<path d="M13.1982 23.8679V21.6045L15.151 22.7363L17.104 21.6045V23.8679L15.151 24.9997L13.1982 23.8679Z" fill="white"/>
<path d="M11.7924 19.1852L9.83936 18.0534V15.79L11.7924 16.9218V19.1852Z" fill="white"/>
<path d="M15.151 11.1267L13.1982 9.99498L15.151 8.86328L17.104 9.99498L15.151 11.1267Z" fill="white"/>
<path d="M10.4058 9.99498L8.453 11.1267V13.3901L6.5 12.2585V9.99498L8.453 8.86328L10.4058 9.99498Z" fill="white"/>
<path d="M6.5 13.8584L8.453 14.99V18.8534L11.8118 20.7852V23.0486L6.5 19.9852V13.8584Z" fill="white"/>
</g>
</svg>
