<svg width="14" height="11" viewBox="0 0 14 11" fill="none" xmlns="http://www.w3.org/2000/svg">
<path d="M5.50031 1.88592C5.80542 1.58083 5.80542 1.08616 5.50031 0.781066C5.19521 0.475973 4.70062 0.475973 4.39549 0.781066L0.228823 4.94776C0.0762708 5.10026 0 5.30026 0 5.50016C0 5.6061 0.0210833 5.70714 0.0592812 5.79922C0.0974063 5.89131 0.153917 5.97766 0.228823 6.05256L4.39549 10.2192C4.70062 10.5243 5.19521 10.5243 5.50031 10.2192C5.80542 9.91412 5.80542 9.41954 5.50031 9.11443L2.66735 6.28141L12.7604 6.28141C13.1919 6.28141 13.5417 5.93162 13.5417 5.50016C13.5417 5.0687 13.1919 4.71891 12.7604 4.71891L2.66735 4.71891L5.50031 1.88592Z" fill="white"/>
</svg>
