<svg width="84" height="44" viewBox="0 0 84 44" fill="none" xmlns="http://www.w3.org/2000/svg">
<path d="M19.776 12.272V5.968H0.48L2.976 12.272H19.776ZM18.816 20.88V15.088H9.664C5.824 15.088 3.008 17.744 3.008 21.616C3.008 22.32 3.008 23.024 3.008 23.696L3.04 27.92C3.04 28.592 3.04 29.296 3.04 30H9.76L9.728 20.88H18.816ZM43.7215 5.968H36.9695V20.336C37.0015 22.384 35.3375 24.048 33.2895 24.048C31.2735 24.048 29.6095 22.384 29.5775 20.336V5.968H22.8575V19.92C22.8575 25.68 27.5615 30.352 33.3215 30.352C39.0815 30.352 43.6895 25.68 43.7215 19.92V5.968Z" fill="url(#paint0_linear_2_2)"/>
<path d="M60.272 12.272C61.04 12.272 61.68 12.912 61.68 13.68C61.68 14.448 61.04 15.088 60.272 15.088H55.664C51.76 15.088 49.008 17.808 49.008 21.616L49.04 30H62.64C66.64 30 69.52 28.016 69.52 23.984C69.488 20.464 67.344 18.096 64.528 17.648C66.8 16.88 68.4 14.864 68.4 11.984C68.4 8.272 65.68 5.968 62.384 5.968H46.48L48.976 12.272H60.272ZM62.768 22.288C62.768 23.056 62.192 23.696 61.392 23.696H55.728V20.88H61.36C62.16 20.88 62.768 21.52 62.768 22.288ZM73.3688 30H80.0888L80.1528 12.272L82.6488 5.968H73.4328L73.3688 30Z" fill="url(#paint1_linear_2_2)"/>
<defs>
<linearGradient id="paint0_linear_2_2" x1="26.3253" y1="-2" x2="34.2749" y2="43.037" gradientUnits="userSpaceOnUse">
<stop stop-color="white"/>
<stop offset="1" stop-color="white" stop-opacity="0"/>
</linearGradient>
<linearGradient id="paint1_linear_2_2" x1="58.1125" y1="1.5" x2="91.3508" y2="8.99938" gradientUnits="userSpaceOnUse">
<stop stop-color="#8743FD"/>
<stop offset="1" stop-color="#3BA7FF" stop-opacity="0"/>
</linearGradient>
</defs>
</svg>
