<svg width="24" height="24" viewBox="0 0 24 24" fill="none" xmlns="http://www.w3.org/2000/svg">
<g id="Icon">
<path id="Mask" fill-rule="evenodd" clip-rule="evenodd" d="M14.0002 18.3415C14.0002 19.2405 13.0842 20.0005 12.0002 20.0005C10.9162 20.0005 10.0002 19.2405 10.0002 18.3415V18.0005H14.0002V18.3415ZM20.5213 15.2075L18.7203 13.4045V8.9365C18.7203 5.4555 16.2183 2.4995 12.8993 2.0595C10.9783 1.8045 9.03834 2.3905 7.58334 3.6665C6.11934 4.9485 5.28034 6.7935 5.28034 8.7275L5.27934 13.4045L3.47934 15.2085C3.01034 15.6775 2.87134 16.3775 3.12534 16.9905C3.38034 17.6035 3.97334 18.0005 4.63734 18.0005H8.00034V18.3415C8.00034 20.3595 9.79434 22.0005 12.0003 22.0005C14.2063 22.0005 16.0003 20.3595 16.0003 18.3415V18.0005H19.3623C20.0263 18.0005 20.6193 17.6045 20.8733 16.9905C21.1283 16.3775 20.9893 15.6775 20.5213 15.2075Z" fill="#CFD9E6"/>
</g>
</svg>
