<svg width="19" height="19" viewBox="0 0 19 19" fill="none" xmlns="http://www.w3.org/2000/svg">
<path fill-rule="evenodd" clip-rule="evenodd" d="M11.4204 12.5252C8.65964 14.7363 4.61856 14.5623 2.05941 12.0031C-0.686469 9.25726 -0.686469 4.80528 2.05941 2.05941C4.80528 -0.686469 9.25724 -0.686469 12.0031 2.05941C14.5622 4.61855 14.7363 8.65966 12.5252 11.4203L17.8957 16.7908C18.2008 17.0959 18.2008 17.5905 17.8957 17.8956C17.5906 18.2007 17.0959 18.2007 16.7908 17.8956L11.4204 12.5252ZM3.16426 10.8982C1.02858 8.76257 1.02858 5.29994 3.16426 3.16426C5.29995 1.02858 8.76255 1.02858 10.8983 3.16426C13.0323 5.29837 13.0339 8.75747 10.903 10.8935C10.9014 10.8951 10.8998 10.8966 10.8982 10.8982C10.8966 10.8998 10.8951 10.9013 10.8936 10.9029C8.75745 13.0339 5.29837 13.0324 3.16426 10.8982Z" fill="white"/>
</svg>
