<svg width="18" height="18" viewBox="0 0 18 18" fill="none" xmlns="http://www.w3.org/2000/svg">
<path fill-rule="evenodd" clip-rule="evenodd" d="M11.0686 1.90344C10.5706 -0.301143 7.4294 -0.301151 6.93142 1.90344L6.81775 2.40666C6.72328 2.82485 6.24339 3.02363 5.88089 2.79472L5.44469 2.51927C3.53368 1.31252 1.31251 3.53368 2.51926 5.44468L2.79472 5.88089C3.02363 6.24339 2.82485 6.72328 2.40666 6.81775L1.90344 6.93142C-0.301143 7.4294 -0.301151 10.5706 1.90344 11.0686L2.40666 11.1823C2.82485 11.2767 3.02363 11.7566 2.79472 12.1191L2.51927 12.5553C1.31251 14.4663 3.53368 16.6875 5.44468 15.4807L5.88089 15.2053C6.24339 14.9764 6.72328 15.1752 6.81775 15.5933L6.93142 16.0966C7.4294 18.3011 10.5706 18.3012 11.0686 16.0966L11.1823 15.5933C11.2767 15.1752 11.7566 14.9764 12.1191 15.2053L12.5553 15.4807C14.4663 16.6875 16.6875 14.4663 15.4807 12.5553L15.2053 12.1191C14.9764 11.7566 15.1752 11.2767 15.5933 11.1823L16.0966 11.0686C18.3011 10.5706 18.3012 7.4294 16.0966 6.93142L15.5933 6.81775C15.1752 6.72328 14.9764 6.24339 15.2053 5.88089L15.4807 5.44469C16.6875 3.53368 14.4663 1.31251 12.5553 2.51926L12.1191 2.79472C11.7566 3.02363 11.2767 2.82485 11.1823 2.40666L11.0686 1.90344ZM8.03674 9.00012C8.03674 8.46806 8.46806 8.03674 9.00012 8.03674C9.53218 8.03674 9.9635 8.46806 9.9635 9.00012C9.9635 9.53218 9.53218 9.9635 9.00012 9.9635C8.46806 9.9635 8.03674 9.53218 8.03674 9.00012ZM9.00012 6.53674C7.63963 6.53674 6.53674 7.63963 6.53674 9.00012C6.53674 10.3606 7.63963 11.4635 9.00012 11.4635C10.3606 11.4635 11.4635 10.3606 11.4635 9.00012C11.4635 7.63963 10.3606 6.53674 9.00012 6.53674Z" fill="#CFD9E6"/>
</svg>
